<svg xmlns="http://www.w3.org/2000/svg" xmlns:xlink="http://www.w3.org/1999/xlink" width="211px" height="519px" version="1.1"><defs/><g transform="translate(0.5,0.5)"><rect x="29" y="76" width="110" height="45" rx="3" ry="3" fill="#ffffff" stroke="#000000" stroke-width="2" pointer-events="none"/><path d="M 84 144 L 139 174 L 84 204 L 29 174 Z" fill="#ffffff" stroke="#000000" stroke-width="2" stroke-miterlimit="10" pointer-events="none"/><rect x="30" y="226" width="110" height="45" rx="3" ry="3" fill="#ffffff" stroke="#000000" stroke-width="2" pointer-events="none"/><rect x="30" y="293" width="110" height="45" rx="3" ry="3" fill="#ffffff" stroke="#000000" stroke-width="2" pointer-events="none"/><path d="M 64 2 L 106 2 C 125 2 140 13 140 27 C 140 41 125 52 106 52 L 64 52 C 45 52 30 41 30 27 C 30 13 45 2 64 2 Z" fill="#ffffff" stroke="#000000" stroke-width="2" stroke-miterlimit="10" pointer-events="none"/><path d="M 60 467 L 103 467 C 121 467 136 478 136 492 C 136 506 121 517 103 517 L 60 517 C 42 517 27 506 27 492 C 27 478 42 467 60 467 Z" fill="#ffffff" stroke="#000000" stroke-width="2" stroke-miterlimit="10" pointer-events="none"/><rect x="45" y="5" width="75" height="40" fill="none" stroke="none" pointer-events="none"/><g fill="#000000" font-family="Helvetica" text-anchor="middle" font-size="24px"><text x="83" y="35">Start</text></g><rect x="42" y="467" width="75" height="45" fill="none" stroke="none" pointer-events="none"/><g fill="#000000" font-family="Helvetica" text-anchor="middle" font-size="24px"><text x="80" y="500">End</text></g><path d="M 29 443 L 51 403 L 139 403 L 117 443 Z" fill="#ffffff" stroke="#000000" stroke-width="2" stroke-miterlimit="10" pointer-events="none"/><rect x="48" y="400" width="75" height="40" fill="none" stroke="none" pointer-events="none"/><g fill="#000000" font-family="Helvetica" text-anchor="middle" font-size="24px"><text x="86" y="430">log(s)</text></g><rect x="27" y="76" width="115" height="40" fill="none" stroke="none" pointer-events="none"/><g fill="#000000" font-family="Helvetica" text-anchor="middle" font-size="24px"><text x="85" y="106">0→n</text></g><rect x="28" y="226" width="110" height="40" fill="none" stroke="none" pointer-events="none"/><g fill="#000000" font-family="Helvetica" text-anchor="middle" font-size="24px"><text x="83" y="256">s + n→s</text></g><rect x="30" y="293" width="111" height="40" fill="none" stroke="none" pointer-events="none"/><g fill="#000000" font-family="Helvetica" text-anchor="middle" font-size="24px"><text x="86" y="323">n + 1→n</text></g><path d="M 82 204 L 82 216 L 79 216 L 84 224 L 89 216 L 86 216 L 86 204 Z" fill="#000000" stroke="#000000" stroke-width="2" stroke-miterlimit="10" pointer-events="none"/><path d="M 83 52 L 83 64 L 80 64 L 85 72 L 90 64 L 87 64 L 87 52 Z" fill="#000000" stroke="#000000" stroke-width="2" stroke-miterlimit="10" pointer-events="none"/><path d="M 83 123 L 83 135 L 80 135 L 85 143 L 90 135 L 87 135 L 87 123 Z" fill="#000000" stroke="#000000" stroke-width="2" stroke-miterlimit="10" pointer-events="none"/><path d="M 7 357 L 85 357" fill="none" stroke="#000000" stroke-width="4" stroke-miterlimit="10" pointer-events="none"/><path d="M -107 244 L 122 244" fill="none" stroke="#000000" stroke-width="4" stroke-miterlimit="10" transform="rotate(90,8,244)" pointer-events="none"/><path d="M 6 129 L 84 129" fill="none" stroke="#000000" stroke-width="4" stroke-miterlimit="10" pointer-events="none"/><path d="M 85 72 L 85 72" fill="none" stroke="#000000" stroke-miterlimit="10" pointer-events="none"/><path d="M 85 72 L 85 72 L 85 72 L 85 72 Z" fill="#000000" stroke="#000000" stroke-miterlimit="10" pointer-events="none"/><path d="M 74 347 L 92 347" fill="none" stroke="#000000" stroke-width="4" stroke-miterlimit="10" transform="rotate(-90,83,347)" pointer-events="none"/><path d="M 81 272 L 81 284 L 78 284 L 83 292 L 88 284 L 85 284 L 85 272 Z" fill="#000000" stroke="#000000" stroke-width="2" stroke-miterlimit="10" pointer-events="none"/><path d="M 83 272 L 83 272" fill="none" stroke="#000000" stroke-miterlimit="10" pointer-events="none"/><path d="M 83 272 L 83 272 L 83 272 L 83 272 Z" fill="#000000" stroke="#000000" stroke-miterlimit="10" pointer-events="none"/><path d="M 59 274 L 259 274" fill="none" stroke="#000000" stroke-width="4" stroke-miterlimit="10" transform="rotate(90,159,274)" pointer-events="none"/><path d="M 80 371 L 80 390 L 77 390 L 82 402 L 87 390 L 84 390 L 84 371 Z" fill="#000000" stroke="#000000" stroke-width="2" stroke-miterlimit="10" pointer-events="none"/><path d="M 81 372 L 159 372" fill="none" stroke="#000000" stroke-width="4" stroke-miterlimit="10" pointer-events="none"/><path d="M 138 174 L 160 174" fill="none" stroke="#000000" stroke-width="4" stroke-miterlimit="10" pointer-events="none"/><rect x="26" y="152" width="115" height="40" fill="none" stroke="none" pointer-events="none"/><g fill="#000000" font-family="Helvetica" text-anchor="middle" font-size="24px"><text x="84" y="182">n &lt; 10</text></g><path d="M 79 443 L 79 455 L 76 455 L 81 463 L 86 455 L 83 455 L 83 443 Z" fill="#000000" stroke="#000000" stroke-width="2" stroke-miterlimit="10" pointer-events="none"/><path d="M 81 443 L 81 443" fill="none" stroke="#000000" stroke-miterlimit="10" pointer-events="none"/><path d="M 81 443 L 81 443 L 81 443 L 81 443 Z" fill="#000000" stroke="#000000" stroke-miterlimit="10" pointer-events="none"/><rect x="80" y="196" width="60" height="28" fill="none" stroke="none" pointer-events="none"/><g fill="#000000" font-family="Helvetica" text-anchor="middle" font-size="18px"><text x="110" y="217">YES</text></g><rect x="147" y="160" width="60" height="28" fill="none" stroke="none" pointer-events="none"/><g fill="#000000" font-family="Helvetica" text-anchor="middle" font-size="18px"><text x="177" y="181">NO</text></g></g></svg>